# xmcd CD database file
#
# Track frame offsets:
#	150
#	14287
#	33155
#	50069
#	83089
#	98829
#	120948
#	135829
#	154338
#	166140
#	184843
#	198381
#	216164
#	231206
#	249281
#	270011
#	281986
#	298293
#	317759
#	337688
#
# Disc length: 4686 seconds
#
# Revision: 0
# Processed by: cddbd v1.5.2PL0 Copyright (c) Steve Scherf et al.
# Submitted via: CDex 1.70beta1
#
DISCID=0e124c14
DTITLE=Wally Fawkes  - The Wally Fawkes Collection CD 1
DYEAR=1900
DGENRE=Jazz
TTITLE0=Aint Gonna Give Nobody None of This Jelly Roll
TTITLE1=Nobody Knows the Way I Feel Dis Mornin' 
TTITLE2=Tom Cat Blues
TTITLE3=Spain
TTITLE4=The Sweeper
TTITLE5=Sobbin' Blues
TTITLE6=London Blues
TTITLE7=Snake Rag
TTITLE8=Whatever Next
TTITLE9=State and Madison
TTITLE10=As Long As I Live
TTITLE11=Mister Jelly Lord
TTITLE12=Perdido St. Blues
TTITLE13=Wild Man Blues
TTITLE14=Atlanta Blues
TTITLE15=Blue Turning Grey
TTITLE16=Love Nest
TTITLE17=Closing Time
TTITLE18=Wabash Blues
TTITLE19=Mister Jelly Lord
EXTD=
EXTT0=
EXTT1=
EXTT2=
EXTT3=
EXTT4=
EXTT5=
EXTT6=
EXTT7=
EXTT8=
EXTT9=
EXTT10=
EXTT11=
EXTT12=
EXTT13=
EXTT14=
EXTT15=
EXTT16=
EXTT17=
EXTT18=
EXTT19=
PLAYORDER=
